<?xml version="1.0" encoding="utf-8"?>
<!-- Generator: Adobe Illustrator 24.0.0, SVG Export Plug-In . SVG Version: 6.00 Build 0)  -->
<svg version="1.1" xmlns="http://www.w3.org/2000/svg" xmlns:xlink="http://www.w3.org/1999/xlink" x="0px" y="0px"
	 viewBox="0 0 196.9 196.9" style="enable-background:new 0 0 196.9 196.9;" xml:space="preserve">
<style type="text/css">
	.st0{fill:#384957;}
	.st1{fill:none;stroke:#FFFFFF;stroke-miterlimit:10;}
	.st2{fill:#FFFFFF;}
	.st3{display:none;}
	.st4{display:inline;fill:#FF00FF;}
	.st5{display:inline;opacity:0.32;}
</style>
<g id="Layer_1">
	<path class="st0" d="M196.8,98.4c0,54.3-44.1,98.4-98.4,98.4c-23.6,0-45.3-8.3-62.2-22.2c0,0-0.1,0-0.2-0.1c-1-0.9-6.1-5.2-11.4-11
		c-0.2-0.2-0.4-0.5-0.6-0.7c-3.8-4.4-7.2-9.1-10.2-14.1C5,134,0,116.8,0,98.4C0,44.1,44.1,0,98.4,0C152.7,0,196.8,44.1,196.8,98.4z"
		/>
	<title>ICONS</title>
</g>
<g id="Layer_3">
	<path class="st1" d="M153.5,92.5"/>
	<path class="st1" d="M104.9,137.5"/>
	<path class="st1" d="M153.5,92.5"/>
	<path class="st2" d="M135.5,50.2C135.5,50.2,135.5,50.3,135.5,50.2C135.5,50.3,135.5,50.3,135.5,50.2c-1.9,1.1-61.6,36.5-83,48.2
		c-21.8,11.8-27.2,15.2-23.4,24.5s0.7,10.9,0.7,10.9l-16,14.9c2.5,4.9,6.3,9.9,10.2,14.1c0.2,0.2,0.4,0.5,0.6,0.7
		c3.5,4,7.3,7.6,11.4,11c0.1,0.1,0.2,0.1,0.2,0.1l12.2-14.5c15.8-23.4,43.6-5.4,43.6-5.4c17-10.4,24.6-45.5,28.4-55.3l0.1-0.3
		c0.6-1.3,3.4-5.9,13.5-3.5c11.7,2.7,30.1-1.7,30.1-25.1C164,47.2,138.3,48.6,135.5,50.2z"/>
	<circle class="st0" cx="46" cy="115.5" r="4.8"/>
	<circle class="st0" cx="62.6" cy="105.9" r="4.8"/>
	<circle class="st0" cx="79.2" cy="96.3" r="4.8"/>
	<circle class="st0" cx="95.9" cy="86.7" r="4.8"/>
	<circle class="st0" cx="112.5" cy="77.1" r="4.8"/>
	<circle class="st0" cx="129.1" cy="67.6" r="4.8"/>
	<g>
		<path class="st2" d="M42.2,90.8c-0.3-0.5-0.9-0.6-1.4-0.4l-9.4,5.3c-0.5,0.3-0.6,0.9-0.4,1.4l2.9,5.1c0.3,0.5,0.9,0.6,1.4,0.4
			l2.1-1.2c0.5-0.3,1.1-0.1,1.4,0.4l2.9,5.1c0.3,0.5,0.9,0.6,1.4,0.4l1.7-1c0.5-0.3,0.6-0.9,0.4-1.4l-2.9-5.1
			c-0.3-0.5-0.1-1.1,0.4-1.4l2.1-1.2c0.5-0.3,0.6-0.9,0.4-1.4L42.2,90.8z"/>
	</g>
	<g>
		<path class="st2" d="M57.2,82.3c-0.3-0.5-0.9-0.6-1.4-0.4l-9.4,5.3c-0.5,0.3-0.6,0.9-0.4,1.4l2.9,5.1c0.3,0.5,0.9,0.6,1.4,0.4
			l2.1-1.2c0.5-0.3,1.1-0.1,1.4,0.4l2.9,5.1c0.3,0.5,0.9,0.6,1.4,0.4l1.7-1c0.5-0.3,0.6-0.9,0.4-1.4l-2.9-5.1
			c-0.3-0.5-0.1-1.1,0.4-1.4l2.1-1.2c0.5-0.3,0.6-0.9,0.4-1.4L57.2,82.3z"/>
	</g>
	<g>
		<path class="st2" d="M73.3,72.8c-0.3-0.5-0.9-0.6-1.4-0.4l-9.4,5.3c-0.5,0.3-0.6,0.9-0.4,1.4l2.9,5.1c0.3,0.5,0.9,0.6,1.4,0.4
			l2.1-1.2c0.5-0.3,1.1-0.1,1.4,0.4l2.9,5.1c0.3,0.5,0.9,0.6,1.4,0.4l1.7-1c0.5-0.3,0.6-0.9,0.4-1.4l-2.9-5.1
			c-0.3-0.5-0.1-1.1,0.4-1.4l2.1-1.2c0.5-0.3,0.6-0.9,0.4-1.4L73.3,72.8z"/>
	</g>
	<g>
		<path class="st2" d="M89.3,63.7c-0.3-0.5-0.9-0.6-1.4-0.4l-9.4,5.3c-0.5,0.3-0.6,0.9-0.4,1.4l2.9,5.1c0.3,0.5,0.9,0.6,1.4,0.4
			l2.1-1.2c0.5-0.3,1.1-0.1,1.4,0.4l2.9,5.1c0.3,0.5,0.9,0.6,1.4,0.4l1.7-1c0.5-0.3,0.6-0.9,0.4-1.4l-2.9-5.1
			c-0.3-0.5-0.1-1.1,0.4-1.4l2.1-1.2c0.5-0.3,0.6-0.9,0.4-1.4L89.3,63.7z"/>
	</g>
	<g>
		<path class="st2" d="M106,54c-0.3-0.5-0.9-0.6-1.4-0.4l-9.4,5.3c-0.5,0.3-0.6,0.9-0.4,1.4l2.9,5.1c0.3,0.5,0.9,0.6,1.4,0.4
			l2.1-1.2c0.5-0.3,1.1-0.1,1.4,0.4l2.9,5.1c0.3,0.5,0.9,0.6,1.4,0.4l1.7-1c0.5-0.3,0.6-0.9,0.4-1.4L106,63
			c-0.3-0.5-0.1-1.1,0.4-1.4l2.1-1.2c0.5-0.3,0.6-0.9,0.4-1.4L106,54z"/>
	</g>
	<g>
		<path class="st2" d="M122.9,44.3c-0.3-0.5-0.9-0.6-1.4-0.4l-9.4,5.3c-0.5,0.3-0.6,0.9-0.4,1.4l2.9,5.1c0.3,0.5,0.9,0.6,1.4,0.4
			l2.1-1.2c0.5-0.3,1.1-0.1,1.4,0.4l2.9,5.1c0.3,0.5,0.9,0.6,1.4,0.4l1.7-1c0.5-0.3,0.6-0.9,0.4-1.4l-2.9-5.1
			c-0.3-0.5-0.1-1.1,0.4-1.4l2.1-1.2c0.5-0.3,0.6-0.9,0.4-1.4L122.9,44.3z"/>
	</g>
</g>
<g id="Layer_4" class="st3">
	<line class="st4" x1="33.9" y1="103.5" x2="128.9" y2="48.5"/>
	<line class="st4" x1="39.8" y1="119.1" x2="134.9" y2="64.1"/>
</g>
<g id="Layer_2" class="st3">
	<g id="ksgstl.tif" class="st5">
		
			<image style="overflow:visible;" width="252" height="252" id="Layer_0_1_" xlink:href="B5A19E2178D97AFD.png"  transform="matrix(-0.781 0 0 0.781 196.7519 0)">
		</image>
	</g>
</g>
</svg>
