<?xml version="1.0" encoding="utf-8"?>
<!-- Generator: Adobe Illustrator 24.0.0, SVG Export Plug-In . SVG Version: 6.00 Build 0)  -->
<svg version="1.1" id="Layer_1" xmlns="http://www.w3.org/2000/svg" xmlns:xlink="http://www.w3.org/1999/xlink" x="0px" y="0px"
	 viewBox="0 0 196.9 196.9" style="enable-background:new 0 0 196.9 196.9;" xml:space="preserve">
<style type="text/css">
	.st0{fill:#384957;}
	.st1{fill:#FFFFFF;stroke:#FFFFFF;stroke-width:10;stroke-miterlimit:10;}
	.st2{fill:none;stroke:#FFFFFF;stroke-width:10;stroke-miterlimit:10;}
	.st3{fill:none;stroke:#FFFFFF;stroke-width:5;stroke-miterlimit:10;}
</style>
<circle class="st0" cx="98.4" cy="98.4" r="98.4"/>
<title>ICONS</title>
<polyline class="st1" points="151,78.2 112.1,45.2 109,42.7 "/>
<path class="st1" d="M146.4,74.2c0,0-20.8-8.4-40.6,15c0,0,25-28.1,6.3-43.9"/>
<path class="st2" d="M56.4,147.3l17-20l32.4-38.2c0,0,20.5,16.4,0,37s-32.1,1.5-32.1,1.5"/>
<line class="st2" x1="49.9" y1="140.7" x2="64.1" y2="152.6"/>
<g>
	<line class="st3" x1="91.4" y1="96.4" x2="85.3" y2="90.9"/>
	<line class="st3" x1="87.9" y1="86.3" x2="81" y2="94.2"/>
	<line class="st3" x1="82.8" y1="106.1" x2="76.6" y2="100.6"/>
	<line class="st3" x1="79.3" y1="96" x2="72.2" y2="104"/>
	<line class="st3" x1="74.1" y1="116" x2="68" y2="110.4"/>
	<line class="st3" x1="70.6" y1="105.9" x2="63.6" y2="113.7"/>
</g>
<polygon class="st0" points="63.6,127.7 100.7,84.5 102.1,85.6 65,128.9 "/>
</svg>
