<?xml version="1.0" encoding="utf-8"?>
<!-- Generator: Adobe Illustrator 24.0.0, SVG Export Plug-In . SVG Version: 6.00 Build 0)  -->
<svg version="1.1" id="Layer_1" xmlns="http://www.w3.org/2000/svg" xmlns:xlink="http://www.w3.org/1999/xlink" x="0px" y="0px"
	 viewBox="0 0 196.9 196.9" style="enable-background:new 0 0 196.9 196.9;" xml:space="preserve">
<style type="text/css">
	.st0{fill:#384957;}
	.st1{fill:#FFFFFF;stroke:#FFFFFF;stroke-width:10;stroke-miterlimit:10;}
	.st2{fill:none;stroke:#FFFFFF;stroke-width:10;stroke-miterlimit:10;}
	.st3{fill:none;stroke:#FFFFFF;stroke-width:5;stroke-miterlimit:10;}
</style>
<circle class="st0" cx="98.4" cy="98.4" r="98.4"/>
<title>ICONS</title>
<polyline class="st1" points="155.6,76.5 113.1,40.5 109.8,37.7 "/>
<path class="st1" d="M150.5,72.1c0,0-22.7-9.2-44.3,16.3c0,0,27.3-30.6,6.9-47.9"/>
<path class="st2" d="M52.4,151.8L70.9,130l35.3-41.6c0,0,22.4,17.9,0,40.3s-35,1.6-35,1.6"/>
<line class="st2" x1="45.3" y1="144.6" x2="60.8" y2="157.6"/>
<g>
	<line class="st3" x1="90.6" y1="96.3" x2="83.9" y2="90.3"/>
	<line class="st3" x1="86.8" y1="85.3" x2="79.2" y2="93.9"/>
	<line class="st3" x1="81.2" y1="106.9" x2="74.5" y2="100.9"/>
	<line class="st3" x1="77.4" y1="95.9" x2="69.7" y2="104.6"/>
	<line class="st3" x1="71.7" y1="117.6" x2="65.1" y2="111.6"/>
	<line class="st3" x1="67.9" y1="106.6" x2="60.3" y2="115.2"/>
</g>
<polygon class="st0" points="60.3,130.4 100.7,83.3 102.2,84.5 61.8,131.7 "/>
</svg>
