<?xml version="1.0" encoding="utf-8"?>
<!-- Generator: Adobe Illustrator 24.0.1, SVG Export Plug-In . SVG Version: 6.00 Build 0)  -->
<svg version="1.1" id="Layer_1" xmlns="http://www.w3.org/2000/svg" xmlns:xlink="http://www.w3.org/1999/xlink" x="0px" y="0px"
	 viewBox="0 0 196.9 196.9" style="enable-background:new 0 0 196.9 196.9;" xml:space="preserve">
<style type="text/css">
	.st0{fill:#384957;}
	.st1{fill:#FFFFFF;}
</style>
<circle class="st0" cx="98.4" cy="98.4" r="98.4"/>
<title>ICONS</title>
<g>
	<path class="st1" d="M147.7,91.5c1.6,0,3-0.9,3-2s-1.4-2-3-2h-1.8c-1.6,0-3.3-1.3-3.6-2.9L135,48.3c-0.3-1.6-1.9-2.9-3.6-2.9H65.6
		c-1.7,0-3.3,1.3-3.6,2.9l-7.3,36.2c-0.3,1.6-1.9,2.9-3.6,2.9h-1.9c-1.7,0-3,0.9-3,2s1.3,2,3,2h43.2c1.7,0,3,1.3,3,3v42.6
		c0,1.6-1.3,3.5-2.8,4.1l-32.1,12.2c-1.5,0.6-2.4,2.1-1.9,3.4s2.1,1.9,3.7,1.3l30.3-11.5c1.5-0.6,2.8,0.3,2.8,1.9v5.3
		c0,1.6,1.1,3,2.5,3s2.5-1.4,2.5-3v-5.3c0-1.6,1.3-2.5,2.8-1.9l30.2,11.5c1.5,0.6,3.2,0,3.7-1.3s-0.4-2.8-1.9-3.4l-32-12.2
		c-1.5-0.6-2.8-2.4-2.8-4.1V94.5c0-1.7,1.3-3,3-3H147.7z"/>
</g>
</svg>
