<?xml version="1.0" encoding="utf-8"?>
<!-- Generator: Adobe Illustrator 24.0.1, SVG Export Plug-In . SVG Version: 6.00 Build 0)  -->
<svg version="1.1" id="Layer_1" xmlns="http://www.w3.org/2000/svg" xmlns:xlink="http://www.w3.org/1999/xlink" x="0px" y="0px"
	 viewBox="0 0 197.4 199.3" style="enable-background:new 0 0 197.4 199.3;" xml:space="preserve">
<style type="text/css">
	.st0{fill:#384957;}
	.st1{fill:#FFFFFF;}
	.st2{fill:#E7F0F7;}
	.st3{fill:#606D79;}
	.st4{fill:#398FD0;}
	.st5{fill:#21272C;}
</style>
<circle class="st0" cx="98.7" cy="100.9" r="98.4"/>
<title>ICONS</title>
<g>
	<path class="st1" d="M123.9,59.4c-0.8,0-2.1,0-2.9,0h-20.4c-0.8,0-1.5,0-1.5,0s-0.7,0-1.5,0H80.4c-0.8,0-2.1,0-2.9,0h-0.4
		c-0.8,0-2.1,0-2.9,0H53.4c-0.8,0-1.4,0.6-1.4,1.4v86c0,0.8,0.6,1.4,1.4,1.4h20.8c0.8,0,2.1,0,2.9,0h0.4c0.8,0,2.1,0,2.9,0h17.1
		c0.8,0,1.5,0,1.5,0s0.7,0,1.5,0H121c0.8,0,2.1,0,2.9,0h20.6c0.8,0,1.4-0.6,1.4-1.4v-86c0-0.8-0.6-1.4-1.4-1.4H123.9z"/>
</g>
<g>
	<g>
		<g>
			<path class="st0" d="M69.7,59.6c0-0.8,0.6-1.4,1.4-1.4H80c0.8,0,1.4,0.6,1.4,1.4v56.9c0,0.8-0.6,1.4-1.4,1.4h-8.8
				c-0.8,0-1.4-0.6-1.4-1.4V59.6z"/>
		</g>
		<g>
			<path class="st0" d="M92.8,59.6c0-0.8,0.6-1.4,1.4-1.4h8.9c0.8,0,1.4,0.6,1.4,1.4v56.9c0,0.8-0.6,1.4-1.4,1.4h-8.9
				c-0.8,0-1.4-0.6-1.4-1.4V59.6z"/>
		</g>
		<g>
			<path class="st0" d="M116.4,59.6c0-0.8,0.6-1.4,1.4-1.4h8.9c0.8,0,1.4,0.6,1.4,1.4v56.9c0,0.8-0.6,1.4-1.4,1.4h-8.9
				c-0.8,0-1.4-0.6-1.4-1.4V59.6z"/>
		</g>
	</g>
</g>
<rect x="186.7" y="-101.6" class="st2" width="21.3" height="21.3"/>
<rect x="219.9" y="-101.6" class="st3" width="21.3" height="21.3"/>
<rect x="253.1" y="-101.6" class="st4" width="21.3" height="21.3"/>
<rect x="286.3" y="-101.6" class="st0" width="21.3" height="21.3"/>
<rect x="319.5" y="-101.6" class="st5" width="21.3" height="21.3"/>
<g>
	<rect x="121" y="75.5" class="st0" width="3" height="72.8"/>
	<rect x="97.5" y="75.5" class="st0" width="3.2" height="72.8"/>
	<rect x="74.2" y="75.5" class="st0" width="3" height="72.8"/>
</g>
</svg>
