<?xml version="1.0" encoding="utf-8"?>
<!-- Generator: Adobe Illustrator 24.0.1, SVG Export Plug-In . SVG Version: 6.00 Build 0)  -->
<svg version="1.1" id="Layer_1" xmlns="http://www.w3.org/2000/svg" xmlns:xlink="http://www.w3.org/1999/xlink" x="0px" y="0px"
	 viewBox="0 0 196.9 196.9" style="enable-background:new 0 0 196.9 196.9;" xml:space="preserve">
<style type="text/css">
	.st0{fill:#384957;}
	.st1{fill:#FFFFFF;}
</style>
<circle class="st0" cx="98.4" cy="98.4" r="98.4"/>
<title>ICONS</title>
<g>
	<path class="st1" d="M49.8,51.2c0-0.5,0.5-1,1-1h95.7c0.6,0,1,0.5,1,1v95.7c0,0.6-0.4,1-1,1H50.8c-0.5,0-1-0.4-1-1V51.2z"/>
</g>
<g>
	<g>
		<g>
			<path class="st0" d="M69.8,63.2c0-1.1-0.9-2-2-2h-1c-1.1,0-2,0.9-2,2v15.1c0,1.1-0.9,2-2,2h-4.5c-1.1,0-2,0.9-2,2v6.1
				c0,1.1,0.9,2,2,2h4.5c1.1,0,2,0.9,2,2V139c0,1.1,0.9,2,2,2h1c1.1,0,2-0.9,2-2V92.4c0-1.1,0.9-2,2-2h4.6c1.1,0,2-0.9,2-2v-6.1
				c0-1.1-0.9-2-2-2h-4.6c-1.1,0-2-0.9-2-2V63.2z"/>
		</g>
		<g>
			<path class="st0" d="M100.7,63.2c0-1.1-0.9-2-2-2h-1c-1.1,0-2,0.9-2,2v36.1c0,1.1-0.9,2-2,2h-4.6c-1.1,0-2,0.9-2,2v6.1
				c0,1.1,0.9,2,2,2h4.6c1.1,0,2,0.9,2,2V139c0,1.1,0.9,2,2,2h1c1.1,0,2-0.9,2-2v-25.6c0-1.1,0.9-2,2-2h4.5c1.1,0,2-0.9,2-2v-6.1
				c0-1.1-0.9-2-2-2h-4.5c-1.1,0-2-0.9-2-2V63.2z"/>
		</g>
		<g>
			<path class="st0" d="M138.6,78.3c0-1.1-0.9-2-2-2H132c-1.1,0-2-0.9-2-2V63.2c0-1.1-0.9-2-2-2h-1c-1.1,0-2,0.9-2,2v11.1
				c0,1.1-0.9,2-2,2h-4.5c-1.1,0-2,0.9-2,2v6.1c0,1.1,0.9,2,2,2h4.5c1.1,0,2,0.9,2,2V139c0,1.1,0.9,2,2,2h1c1.1,0,2-0.9,2-2V88.4
				c0-1.1,0.9-2,2-2h4.6c1.1,0,2-0.9,2-2V78.3z"/>
		</g>
	</g>
</g>
</svg>
