<?xml version="1.0" encoding="utf-8"?>
<!-- Generator: Adobe Illustrator 24.0.0, SVG Export Plug-In . SVG Version: 6.00 Build 0)  -->
<svg version="1.1" id="Layer_1" xmlns="http://www.w3.org/2000/svg" xmlns:xlink="http://www.w3.org/1999/xlink" x="0px" y="0px"
	 viewBox="0 0 129 129" style="enable-background:new 0 0 129 129;" xml:space="preserve">
<style type="text/css">
	.st0{fill:#231F20;}
</style>
<title>ICONS</title>
<g id="Layer_1-2">
	<path class="st0" d="M44.7,75.2c11.7,10.8,30,10.1,40.8-1.6c4.2-4.5,6.8-10.3,7.5-16.4c-7.2,3.4-15.2,6.8-23.5,9.9
		C61,70.3,52.5,73,44.7,75.2z"/>
	<path class="st0" d="M100.9,31.3c-4.6,0.8-9.7,2-15.1,3.4l0,0c-2-2.2-4.3-4.2-6.9-5.7l0,0c-1.5-0.9-3.1-1.6-4.7-2.2h-0.1l-0.6-0.2
		l-0.2-0.1l-0.6-0.2h-0.1c-0.3-0.1-0.7-0.2-1-0.3L71.2,26l-0.4-0.1l-0.4-0.1l-0.4-0.1l-0.5-0.1l-0.3-0.1l-0.8-0.1h-0.2l-0.8-0.1
		h-0.3l-0.6-0.1h-0.3c-0.2,0-0.4,0-0.6,0h-0.3c-0.3,0-0.6,0-0.9,0s-0.7,0-1.1,0H63c-0.3,0-0.7,0-1,0.1h-0.2l-0.9,0.1h-0.2l-1,0.1
		h-0.2l-1,0.2h-0.1c-0.3,0.1-0.6,0.1-1,0.2l-0.2,0l-1,0.3l-0.2,0l-0.9,0.3h-0.1c-0.3,0.1-0.6,0.2-0.9,0.3L54,27
		c-0.3,0.1-0.6,0.2-0.9,0.4H53c-0.3,0.1-0.6,0.2-0.8,0.4l-0.2,0.1l-0.9,0.4l-0.2,0.1l-0.8,0.4l-0.1,0l-0.8,0.5L49,29.4
		c-0.3,0.2-0.5,0.3-0.8,0.5L48,30l-0.7,0.5l-0.2,0.1l-0.8,0.6l-0.2,0.1l-0.7,0.6L45.4,32l-0.7,0.6l-0.2,0.2l-0.7,0.6l-0.2,0.2
		l-0.6,0.6L43,34.3c-0.2,0.2-0.4,0.5-0.6,0.7l-0.2,0.2c-0.2,0.2-0.4,0.5-0.6,0.7L41.5,36c-0.2,0.2-0.3,0.4-0.5,0.7l-0.2,0.2
		c-0.2,0.2-0.3,0.5-0.5,0.7l-0.2,0.2l-0.4,0.6l-0.1,0.2c-0.2,0.3-0.3,0.5-0.5,0.8L39,39.7c-0.2,0.2-0.3,0.5-0.4,0.8l-0.1,0.2
		l-0.3,0.7c0,0.1-0.1,0.2-0.1,0.3c-0.1,0.3-0.2,0.5-0.4,0.8s-0.1,0.2-0.1,0.3s-0.2,0.4-0.3,0.7l-0.1,0.3c-0.1,0.3-0.2,0.5-0.3,0.8
		l-0.1,0.2l0,0c-1,2.8-1.5,5.8-1.5,8.8l0,0c-4.8,2.3-9.2,4.7-13,7C11.8,66.9,8.5,70.9,7.9,72.4c1.4,0.7,6.5,1.6,18.6-0.6
		c4-0.7,8.4-1.7,13-2.9l0,0l1.5-0.4h0.2c1.6-0.4,3.2-0.9,4.8-1.3l0.2-0.1l1.5-0.4h0.2l3.2-1l0.3-0.1l1.4-0.4l0.3-0.1l1.6-0.5l0,0
		l1.7-0.6l0.3-0.1l1.3-0.4l0.4-0.2l1.3-0.4l0.3-0.1l1.6-0.6l0.3-0.1l1.3-0.5l0.5-0.2l1.2-0.4l0.5-0.2l1.6-0.6l1.6-0.6l0.5-0.2
		l1.1-0.5l0.5-0.2l1.2-0.5l0.4-0.2l1.6-0.6l0.2-0.1l1.4-0.5l0.4-0.2l1.2-0.5l0.4-0.2l1.4-0.6l0.1-0.1l1.6-0.7h0.1l1.4-0.6l0.3-0.1
		l1.3-0.6l0.2-0.1l3.1-1.4l0,0l1.4-0.7l0.2-0.1l1.4-0.7l0,0c1-0.5,2-1,3-1.4l0,0c4.5-2.2,8.6-4.5,12.3-6.7
		c10.5-6.3,13.8-10.3,14.4-11.8C118.1,30,112.9,29.1,100.9,31.3z"/>
</g>
<path class="st0" d="M68.4,88.3c-29.3,0-53,18.2-53,40.7h106C121.4,106.5,97.7,88.3,68.4,88.3z"/>
</svg>
