<?xml version="1.0" encoding="utf-8"?>
<!-- Generator: Adobe Illustrator 24.0.0, SVG Export Plug-In . SVG Version: 6.00 Build 0)  -->
<svg version="1.1" id="Layer_1" xmlns="http://www.w3.org/2000/svg" xmlns:xlink="http://www.w3.org/1999/xlink" x="0px" y="0px"
	 viewBox="0 0 196.9 196.9" style="enable-background:new 0 0 196.9 196.9;" xml:space="preserve">
<style type="text/css">
	.st0{fill:#384957;}
	.st1{fill:none;stroke:#FFFFFF;stroke-width:6;stroke-miterlimit:10;}
	.st2{fill:#FFFFFF;}
	.st3{fill:none;stroke:#384957;stroke-width:2;stroke-miterlimit:10;}
</style>
<title>ICONS</title>
<circle class="st0" cx="98.4" cy="98.4" r="98.4"/>
<line class="st1" x1="75.8" y1="79.6" x2="67.3" y2="81.1"/>
<line class="st1" x1="78.3" y1="94" x2="69.9" y2="95.5"/>
<line class="st1" x1="80.9" y1="108.5" x2="72.4" y2="110"/>
<path class="st2" d="M112.8,109.2c-1.4,5.2,3.9,14.6-8.4,16.8c-10.4,1.8-13.3-5.9-14.2-9.6l0,0l-0.3-1.7c0-0.1,0-0.2,0-0.2
	l-2.3-13.2l0,0L79.7,57c0,0-1.2-12.3-14.4-9.9l-19.9,3.5c1.1,6.3,8.4,3.2,8.4,3.2c13.3-2.3,14.3,9.2,14.3,9.2L80,130.4
	c3.4,19.5,22,32.5,41.5,29c14-2.5,22.3-12.5,26.5-25.4c1.5-4.4,2.4-9,2.9-13.9L112.8,109.2z"/>
<line class="st1" x1="108.1" y1="109.2" x2="155.8" y2="120.8"/>
<line class="st3" x1="55.4" y1="45.4" x2="57.8" y2="59.3"/>
</svg>
