<?xml version="1.0" encoding="utf-8"?>
<!-- Generator: Adobe Illustrator 24.0.0, SVG Export Plug-In . SVG Version: 6.00 Build 0)  -->
<svg version="1.1" id="Layer_1" xmlns="http://www.w3.org/2000/svg" xmlns:xlink="http://www.w3.org/1999/xlink" x="0px" y="0px"
	 viewBox="0 0 196.9 196.9" style="enable-background:new 0 0 196.9 196.9;" xml:space="preserve">
<style type="text/css">
	.st0{fill:#384957;}
	.st1{fill:#FFFFFF;stroke:#FFFFFF;stroke-width:6;stroke-miterlimit:10;}
	.st2{fill:#FFFFFF;}
	.st3{fill:none;stroke:#FFFFFF;stroke-width:6;stroke-miterlimit:10;}
</style>
<title>ICONS</title>
<circle class="st0" cx="98.4" cy="98.4" r="98.4"/>
<line class="st1" x1="80" y1="75.1" x2="71.4" y2="75.1"/>
<line class="st1" x1="80" y1="89.8" x2="71.4" y2="89.8"/>
<line class="st1" x1="80" y1="104.5" x2="71.4" y2="104.5"/>
<path class="st2" d="M111.3,110.7c-2.3,4.9,1.3,15.1-11.2,15.1c-10.6,0-12.1-8.1-12.3-11.9l0,0v-1.7c0-0.1,0-0.2,0-0.2V98.6
	c0,0,0,0,0,0V53.6c0,0,1-12.3-12.5-12.3H55.1c0,6.4,7.7,4.6,7.7,4.6c13.5,0,12.5,11.6,12.5,11.6v68.4c0,19.8,16,35.8,35.8,35.8
	c14.2,0,24.1-8.4,30.5-20.4c2.2-4.1,3.9-8.5,5.3-13.2L111.3,110.7z"/>
<line class="st3" x1="106.7" y1="109.9" x2="151.6" y2="129.6"/>
</svg>
