<?xml version="1.0" encoding="utf-8"?>
<!-- Generator: Adobe Illustrator 24.0.3, SVG Export Plug-In . SVG Version: 6.00 Build 0)  -->
<svg version="1.1" id="Layer_1" xmlns="http://www.w3.org/2000/svg" xmlns:xlink="http://www.w3.org/1999/xlink" x="0px" y="0px"
	 viewBox="0 0 196.9 196.9" style="enable-background:new 0 0 196.9 196.9;" xml:space="preserve">
<style type="text/css">
	.st0{fill:none;stroke:#FFFFFF;stroke-miterlimit:10;}
	.st1{display:none;}
	.st2{display:inline;fill:none;}
	.st3{display:inline;opacity:0.32;}
	.st4{fill:#384957;}
</style>
<title>ICONS</title>
<path class="st0" d="M153.5,87.6"/>
<path class="st0" d="M106.6,144.4"/>
<path class="st0" d="M153.5,87.6"/>
<g id="Layer_4" class="st1">
	<line class="st2" x1="33.9" y1="103.5" x2="128.9" y2="48.5"/>
	<line class="st2" x1="39.8" y1="119.1" x2="134.9" y2="64.1"/>
</g>
<g id="Layer_2_1_" class="st1">
	<g id="ksgstl.tif" class="st3">
		
			<image style="overflow:visible;enable-background:new    ;" width="252" height="252" id="Layer_0_1_" xlink:href="B5A19E2178D97AFD.png"  transform="matrix(-0.781 0 0 0.781 196.7519 0)">
		</image>
	</g>
</g>
<g>
	<circle class="st4" cx="100.5" cy="73" r="4"/>
	<circle class="st4" cx="82.7" cy="92.6" r="4"/>
	<circle class="st4" cx="106.3" cy="116.2" r="4"/>
	<circle class="st4" cx="125" cy="97.5" r="4"/>
	<path class="st4" d="M98.4,0.1C44.1,0.1,0,44.2,0,98.5c0,21.8,7.1,41.9,19.1,58.2L43,132.8l24.1,24.1l-23.4,23.4
		c15.6,10.5,34.4,16.6,54.7,16.6c54.3,0,98.4-44.1,98.4-98.4C196.8,44.2,152.7,0.1,98.4,0.1z M77,50.7c3.4-3.6,8.3-4.7,10.8-2.3
		c1.7,1.5-1.2,5.8,0.5,7.4c1.7,1.6,4.9,4.5,4.9,4.5l-2.7,2.9l-2.7,2.9c0,0-3.1-2.9-4.8-4.5c-1.7-1.5-5.8,1.7-7.5,0.1
		C72.9,59.3,73.6,54.4,77,50.7z M58.4,72.1c3.2-3.9,8-5.2,10.9-3c1.8,1.5-0.8,5.9,0.9,7.4s5.1,4.2,5.1,4.2l-2.6,3.1l-2.6,3.1
		c0,0-3.3-2.8-5.1-4.3c-1.8-1.4-5.7,2-7.5,0.5C54.8,80.9,55.2,75.9,58.4,72.1z M85.5,144.6c-12-1-14.6,8.7-14.6,8.7l-12-12.2
		l-12.2-12c0,0,9.7-2.7,8.7-14.6c-1-11.9,51-63.9,51-63.9s13.6,15.2,26.8,16.3c1.1,13.2,16.2,26.7,16.2,26.7S97.4,145.6,85.5,144.6z
		 M128,141.7c-3.8,3.2-8.8,3.6-11,0.9c-1.5-1.8,1.9-5.7,0.5-7.5c-1.5-1.8-4.3-5.1-4.3-5.1l3.1-2.6l3.1-2.6c0,0,2.7,3.4,4.2,5.1
		c1.5,1.8,5.9-0.9,7.4,0.9C133.2,133.7,131.9,138.5,128,141.7z M149.3,123.1c-3.7,3.4-8.6,4.1-11,1.5c-1.6-1.7,1.6-5.8,0.1-7.5
		s-4.5-4.8-4.5-4.8l2.9-2.7l2.9-2.7c0,0,2.9,3.2,4.5,4.9c1.6,1.7,5.9-1.2,7.4,0.5C154.1,114.8,153,119.7,149.3,123.1z"/>
</g>
</svg>
