<?xml version="1.0" encoding="utf-8"?>
<!-- Generator: Adobe Illustrator 24.0.1, SVG Export Plug-In . SVG Version: 6.00 Build 0)  -->
<svg version="1.1" id="Layer_1" xmlns="http://www.w3.org/2000/svg" xmlns:xlink="http://www.w3.org/1999/xlink" x="0px" y="0px"
	 viewBox="0 0 196.9 196.9" style="enable-background:new 0 0 196.9 196.9;" xml:space="preserve">
<style type="text/css">
	.st0{fill:none;stroke:#FFFFFF;stroke-miterlimit:10;}
	.st1{fill:#384957;}
	.st2{display:none;}
	.st3{display:inline;fill:none;}
	.st4{display:inline;opacity:0.32;}
</style>
<title>ICONS</title>
<path class="st0" d="M153.5,92.6"/>
<path class="st0" d="M104.9,137.6"/>
<path class="st0" d="M153.5,92.6"/>
<g>
	<circle class="st1" cx="46" cy="115.6" r="4.8"/>
	<path class="st1" d="M98.4,0C44.1,0,0,44.1,0,98.4c0,18.4,5,35.6,13.8,50.3c0,0,0,0,0,0l16-14.9c0,0,3.1-1.6-0.7-10.9
		c-3-7.3-0.3-11,11.5-17.9l-1.8-3.2c-0.3-0.5-0.9-0.7-1.4-0.4l-2.1,1.2c-0.5,0.2-1.1,0.1-1.4-0.4L31,97.2c-0.2-0.5-0.1-1.1,0.4-1.4
		l9.4-5.3c0.5-0.2,1.1-0.1,1.4,0.4l3,5c0.2,0.5,0.1,1.1-0.4,1.4l-2.1,1.2c-0.5,0.3-0.7,0.9-0.4,1.4l1.8,3.2c2.5-1.4,5.3-2.9,8.4-4.6
		c1-0.5,2.1-1.1,3.2-1.8l-1.9-3.3c-0.3-0.5-0.9-0.7-1.4-0.4l-2.1,1.2c-0.5,0.2-1.1,0.1-1.4-0.4L46,88.7c-0.2-0.5-0.1-1.1,0.4-1.4
		l9.4-5.3c0.5-0.2,1.1-0.1,1.4,0.4l3,5c0.2,0.5,0.1,1.1-0.4,1.4L57.7,90c-0.5,0.3-0.7,0.9-0.4,1.4l1.9,3.4c3.8-2.1,8.1-4.6,12.7-7.3
		l-2-3.6c-0.3-0.5-0.9-0.7-1.4-0.4l-2.1,1.2c-0.5,0.2-1.1,0.1-1.4-0.4l-2.9-5.1c-0.2-0.5-0.1-1.1,0.4-1.4l9.4-5.3
		c0.5-0.2,1.1-0.1,1.4,0.4l3,5c0.2,0.5,0.1,1.1-0.4,1.4l-2.1,1.2c-0.5,0.3-0.7,0.9-0.4,1.4l2,3.6c4-2.3,8.2-4.8,12.4-7.2l-2-3.5
		c-0.3-0.5-0.9-0.7-1.4-0.4l-2.1,1.2c-0.5,0.2-1.1,0.1-1.4-0.4l-2.9-5.1c-0.2-0.5-0.1-1.1,0.4-1.4l9.4-5.3c0.5-0.2,1.1-0.1,1.4,0.4
		l3,5c0.2,0.5,0.1,1.1-0.4,1.4l-2.1,1.2c-0.5,0.3-0.7,0.9-0.4,1.4l2,3.4c4.5-2.6,8.9-5.2,13.2-7.7l-1.9-3.4
		c-0.3-0.5-0.9-0.7-1.4-0.4l-2.1,1.2c-0.5,0.2-1.1,0.1-1.4-0.4l-2.9-5.1c-0.2-0.5-0.1-1.1,0.4-1.4l9.4-5.3c0.5-0.2,1.1-0.1,1.4,0.4
		l2.9,5c0.2,0.5,0.1,1.1-0.4,1.4l-2.1,1.2c-0.5,0.3-0.7,0.9-0.4,1.4l2,3.4c4.9-2.9,9.4-5.5,13.3-7.9l-1.8-3.2
		c-0.3-0.5-0.9-0.7-1.4-0.4l-2.1,1.2c-0.5,0.2-1.1,0.1-1.4-0.4l-2.9-5.1c-0.2-0.5-0.1-1.1,0.4-1.4l9.4-5.3c0.5-0.2,1.1-0.1,1.4,0.4
		l3,5c0.2,0.5,0.1,1.1-0.4,1.4l-2.1,1.2c-0.5,0.3-0.7,0.9-0.4,1.4l1.8,3.2c6.2-3.6,10.2-6,10.7-6.3c2.8-1.6,28.5-3,28.6,20.3
		c0,23.4-18.4,27.8-30.1,25.1c-10.1-2.4-12.9,2.2-13.5,3.5l-0.1,0.3c-3.8,9.8-11.4,44.9-28.4,55.3c0,0-27.8-18-43.6,5.4l-12.2,14.5
		c16.9,13.9,38.6,22.2,62.2,22.2c54.3,0,98.4-44.1,98.4-98.4S152.7,0,98.4,0z"/>
	<ellipse transform="matrix(0.9871 -0.1602 0.1602 0.9871 -16.1651 11.3923)" class="st1" cx="62.6" cy="106" rx="4.8" ry="4.8"/>
	
		<ellipse transform="matrix(0.7071 -0.7071 0.7071 0.7071 -10.0377 111.0906)" class="st1" cx="129.1" cy="67.7" rx="4.8" ry="4.8"/>
	<ellipse transform="matrix(0.9732 -0.2298 0.2298 0.9732 -20.0214 20.7696)" class="st1" cx="79.2" cy="96.4" rx="4.8" ry="4.8"/>
	<ellipse transform="matrix(0.3827 -0.9239 0.9239 0.3827 -1.853 151.5506)" class="st1" cx="112.5" cy="77.2" rx="4.8" ry="4.8"/>
	<ellipse transform="matrix(0.9871 -0.1602 0.1602 0.9871 -12.6596 16.4784)" class="st1" cx="95.9" cy="86.8" rx="4.8" ry="4.8"/>
</g>
<g id="Layer_4" class="st2">
	<line class="st3" x1="33.9" y1="103.5" x2="128.9" y2="48.5"/>
	<line class="st3" x1="39.8" y1="119.1" x2="134.9" y2="64.1"/>
</g>
<g id="Layer_2_1_" class="st2">
	<g id="ksgstl.tif" class="st4">
		
			<image style="overflow:visible;enable-background:new    ;" width="252" height="252" id="Layer_0_1_" xlink:href="B5A19E2178D97AFD.png"  transform="matrix(-0.781 0 0 0.781 196.7519 0)">
		</image>
	</g>
</g>
</svg>
