<svg xmlns="http://www.w3.org/2000/svg" width="14.4" height="22" viewBox="0 0 14.4 22">
  <g id="Group_174" data-name="Group 174" transform="translate(-1169 -1595)">
    <g id="Group_173" data-name="Group 173" transform="translate(-87)">
      <g id="Group_171" data-name="Group 171" transform="translate(1255 1594.7)">
        <path id="Path_95" data-name="Path 95" d="M3,22.3a1.964,1.964,0,0,1-2-1.913V2.213A1.964,1.964,0,0,1,3,.3,1.964,1.964,0,0,1,5,2.213V20.387A1.964,1.964,0,0,1,3,22.3Z"/>
      </g>
      <g id="Group_172" data-name="Group 172" transform="translate(1258 1594.7)">
        <path id="Path_96" data-name="Path 96" d="M10.4,22.3a1.964,1.964,0,0,1-2-1.913V2.213a2,2,0,0,1,4,0V20.387A1.964,1.964,0,0,1,10.4,22.3Z"/>
      </g>
    </g>
  </g>
</svg>
