<?xml version="1.0" encoding="utf-8"?>
<!-- Generator: Adobe Illustrator 24.0.0, SVG Export Plug-In . SVG Version: 6.00 Build 0)  -->
<svg version="1.1" id="Layer_1" xmlns="http://www.w3.org/2000/svg" xmlns:xlink="http://www.w3.org/1999/xlink" x="0px" y="0px"
	 viewBox="0 0 196.9 196.9" style="enable-background:new 0 0 196.9 196.9;" xml:space="preserve">
<style type="text/css">
	.st0{fill:#FFFFFF;}
</style>
<title>ICONS</title>
<g>
	<path class="st0" d="M98.6,83.3c-8.3,0-15.1,6.8-15.1,15.1c0,8.3,6.8,15.1,15.1,15.1c0,0,0,0,0,0c8.3,0,15.1-6.8,15.1-15.1
		C113.8,90,107,83.3,98.6,83.3z"/>
	<path class="st0" d="M98.4,0C44.1,0,0,44.1,0,98.4c0,54.3,44.1,98.4,98.4,98.4c54.3,0,98.4-44.1,98.4-98.4
		C196.8,44.1,152.7,0,98.4,0z M143.7,117.1c-0.1,3.8-0.8,7.5-2.1,11c-1.1,3-2.9,5.8-5.2,8c-2.3,2.3-5,4.1-8,5.2
		c-3.5,1.3-7.2,2-11,2.1c-4.8,0.2-6.4,0.3-18.7,0.3s-13.8-0.1-18.7-0.3c-3.8-0.1-7.5-0.8-11-2.1c-3-1.1-5.8-2.9-8-5.2
		c-2.3-2.3-4.1-5-5.2-8c-1.3-3.5-2-7.2-2.1-11c-0.2-4.8-0.3-6.4-0.3-18.7s0.1-13.8,0.3-18.7c0.1-3.8,0.8-7.5,2.1-11
		c1.1-3,2.9-5.8,5.2-8c2.3-2.3,5-4.1,8-5.2c3.5-1.3,7.2-2,11-2.1c4.8-0.2,6.4-0.3,18.7-0.3l0,0c12.3,0,13.8,0.1,18.7,0.3
		c3.8,0.1,7.5,0.8,11,2.1c3,1.1,5.8,2.9,8,5.2c2.3,2.3,4.1,5,5.2,8c1.3,3.5,2,7.3,2.1,11c0.2,4.8,0.3,6.4,0.3,18.7
		C144,110.7,143.9,112.2,143.7,117.1z"/>
	<path class="st0" d="M134,71.7c-0.7-2-1.9-3.8-3.4-5.2c-1.5-1.5-3.2-2.7-5.2-3.4c-2.7-1-5.5-1.5-8.4-1.6c-4.8-0.2-6.2-0.3-18.3-0.3
		l0,0c-12.1,0-13.5,0-18.3,0.3c-2.9,0-5.7,0.6-8.4,1.6c-2,0.7-3.8,1.9-5.2,3.4c-1.5,1.5-2.7,3.2-3.4,5.2c-1,2.7-1.5,5.5-1.6,8.4
		c-0.2,4.8-0.3,6.2-0.3,18.3c0,12.1,0.1,13.5,0.3,18.3c0,2.9,0.6,5.7,1.6,8.4c0.7,2,1.9,3.8,3.4,5.2c1.5,1.5,3.2,2.7,5.2,3.4
		c2.7,1,5.5,1.5,8.4,1.6c4.8,0.2,6.2,0.3,18.3,0.3s13.5-0.1,18.3-0.3c2.9,0,5.7-0.6,8.4-1.6c2-0.7,3.8-1.9,5.2-3.4
		c1.5-1.5,2.7-3.2,3.4-5.2c1-2.7,1.5-5.5,1.6-8.4c0.2-4.8,0.3-6.2,0.3-18.3c0-12.1-0.1-13.5-0.3-18.3C135.5,77.2,135,74.4,134,71.7z
		 M98.7,121.7c-12.8,0-23.3-10.4-23.3-23.3c0-12.9,10.4-23.3,23.3-23.3c12.8,0,23.3,10.4,23.3,23.3
		C121.9,111.3,111.5,121.7,98.7,121.7z M122.8,79.6c-3,0-5.4-2.4-5.4-5.4c0-3,2.4-5.4,5.4-5.4c3,0,5.4,2.4,5.4,5.4
		C128.3,77.2,125.8,79.6,122.8,79.6z"/>
</g>
</svg>
