<?xml version="1.0" encoding="utf-8"?>
<!-- Generator: Adobe Illustrator 24.0.0, SVG Export Plug-In . SVG Version: 6.00 Build 0)  -->
<svg version="1.1" id="Layer_1" xmlns="http://www.w3.org/2000/svg" xmlns:xlink="http://www.w3.org/1999/xlink" x="0px" y="0px"
	 viewBox="0 0 196.9 196.9" style="enable-background:new 0 0 196.9 196.9;" xml:space="preserve">
<style type="text/css">
	.st0{fill:#FFFFFF;}
</style>
<title>ICONS</title>
<path class="st0" d="M98.4,0C44.1,0,0,44.1,0,98.4c0,54.3,44.1,98.4,98.4,98.4c54.3,0,98.4-44.1,98.4-98.4
	C196.8,44.1,152.7,0,98.4,0z M136.6,83c0.1,0.8,0.1,1.7,0.1,2.5c0,26-19.8,56-56,56l0,0c-10.7,0-21.2-3-30.2-8.8
	c1.6,0.2,3.1,0.3,4.7,0.3c8.9,0,17.5-3,24.4-8.4c-8.4-0.2-15.8-5.6-18.4-13.7c2.9,0.6,6,0.5,8.9-0.3c-9.2-1.9-15.8-9.9-15.8-19.3V91
	c2.7,1.5,5.8,2.4,8.9,2.5c-8.6-5.8-11.3-17.3-6.1-26.3c10,12.3,24.7,19.8,40.5,20.6c-1.6-6.8,0.6-14,5.7-18.8
	c7.9-7.4,20.4-7.1,27.8,0.9c4.4-0.9,8.6-2.5,12.5-4.8c-1.5,4.6-4.5,8.4-8.6,10.9c3.9-0.5,7.7-1.5,11.3-3.1
	C143.7,76.8,140.4,80.3,136.6,83z"/>
</svg>
