<svg xmlns="http://www.w3.org/2000/svg" viewBox="0 0 396.11 205.25"><defs><style>.cls-1{fill:#fff;}</style></defs><title>maldek-logo-planet</title><g id="Layer_2" data-name="Layer 2"><g id="Layer_1-2" data-name="Layer 1"><path class="cls-1" d="M130.45,178a102.61,102.61,0,0,0,171.61-63.87c-25.56,12.2-53.8,24.15-83.38,35.2C188.3,160.67,158.38,170.37,130.45,178Z"/><path class="cls-1" d="M330.06,22.11c-16.39,2.88-34.44,7-53.52,12.08h0l0,0a103.17,103.17,0,0,0-24.55-20.13H252A102.86,102.86,0,0,0,235.4,6.26L235,6.12l-2.17-.76-.66-.21c-.7-.23-1.39-.46-2.09-.67l-.45-.14c-1.22-.36-2.45-.71-3.69-1L224.62,3l-1.5-.35-1.58-.35L220.13,2l-1.81-.34-1.23-.22c-1-.16-1.92-.31-2.9-.44L213.66.9c-.91-.12-1.82-.23-2.74-.33l-1-.1c-.73-.07-1.45-.13-2.18-.18L206.56.21c-.74,0-1.5-.08-2.25-.11l-1,0Q201.72,0,200.08,0c-1.27,0-2.53,0-3.79.08l-.77,0c-1.22.05-2.43.12-3.64.22l-.62,0c-1.12.1-2.23.21-3.34.34l-.53.06q-1.8.23-3.57.51l-.77.12q-1.8.3-3.57.66l-.22.05c-1.13.23-2.25.49-3.37.76l-.72.17c-1.14.28-2.27.59-3.39.91l-.65.19c-1,.31-2.1.63-3.13,1l-.42.13c-1.11.37-2.21.77-3.3,1.18l-.74.27c-1.09.42-2.18.85-3.25,1.3l-.37.16c-1,.42-2,.86-3,1.32l-.64.3c-1,.49-2.06,1-3.07,1.51l-.66.35c-1,.5-1.91,1-2.85,1.54l-.31.17c-1,.57-2,1.16-3,1.76l-.7.43c-1,.6-1.91,1.21-2.85,1.84l-.47.33c-.85.57-1.68,1.16-2.5,1.75l-.59.43c-.9.66-1.78,1.33-2.66,2l-.66.53c-.83.66-1.65,1.34-2.47,2l-.27.23c-.84.72-1.66,1.46-2.48,2.21l-.67.61q-1.2,1.13-2.37,2.28l-.55.55c-.66.68-1.32,1.36-2,2-.18.19-.37.38-.55.58-.73.79-1.45,1.6-2.16,2.42l-.64.75c-.68.79-1.35,1.6-2,2.41l-.43.54c-.6.76-1.19,1.53-1.76,2.31l-.61.83c-.63.85-1.24,1.72-1.84,2.59l-.55.83q-.73,1.1-1.44,2.22c-.16.25-.33.5-.49.76-.55.89-1.09,1.79-1.61,2.71l-.57,1c-.51.9-1,1.81-1.48,2.72-.15.28-.29.56-.43.84-.39.77-.78,1.54-1.15,2.31-.17.35-.34.7-.5,1.06-.44.93-.86,1.87-1.27,2.82-.15.36-.31.73-.46,1.1-.32.76-.63,1.53-.93,2.3-.13.35-.27.71-.41,1.06-.34.93-.68,1.86-1,2.81-.07.21-.15.41-.22.62h0a102.6,102.6,0,0,0-5.3,31.32h0c-17,8.32-32.58,16.72-46.3,25C13.86,148.67,2.15,162.92,0,168.07c5,2.48,23.18,5.56,66.05-2,14.31-2.51,29.89-5.95,46.31-10.18h0l5.44-1.42.51-.14q8.37-2.22,17-4.71l.72-.21,5.18-1.51.56-.17q5.73-1.69,11.55-3.5l.92-.29,4.84-1.52,1.14-.36c1.85-.59,3.7-1.18,5.55-1.79l.13,0,5.86-1.92,1.07-.36,4.62-1.55,1.58-.54,4.53-1.54,1.25-.44c1.91-.65,3.81-1.32,5.72-2l1-.36,4.7-1.67,1.8-.65c1.38-.5,2.75-1,4.12-1.5l1.72-.62c1.9-.7,3.8-1.4,5.71-2.12s3.73-1.4,5.58-2.1l1.73-.66,3.93-1.51,1.86-.72,4.12-1.61,1.43-.56q2.79-1.1,5.55-2.2l.55-.23,5-2,1.45-.59,4.17-1.72,1.41-.59,4.89-2,.49-.21,5.62-2.39.32-.14q2.55-1.09,5.07-2.2l1-.43,4.65-2,.72-.32c3.66-1.63,7.29-3.27,10.86-4.91l.05,0,5.17-2.4.52-.24,5.06-2.4.07,0q5.32-2.55,10.47-5.09h0c15.95-7.9,30.64-15.85,43.65-23.66,37.31-22.41,49-36.65,51.17-41.81C391.11,17.66,372.93,14.58,330.06,22.11Z"/></g></g></svg>