<svg xmlns="http://www.w3.org/2000/svg" viewBox="0 0 511.95 141.92"><defs><style>.cls-1{fill:#fff;}</style></defs><title>maldek-logo-text</title><g id="Layer_2" data-name="Layer 2"><g id="Layer_1-2" data-name="Layer 1"><path class="cls-1" d="M0,0H28.24l19.5,55.28H48L67.6,0H95.71V84.71H77.05v-65h-.24l-22.25,65H40.32l-21.42-65h-.24v65H0Z"/><path class="cls-1" d="M140.82,0h15.43L193.1,84.71h-21l-7.3-17.95h-32.9l-7.06,17.95H104.21ZM148,24.65,137.71,51h20.7Z"/><path class="cls-1" d="M202.32,0H221V67.48h34.58V84.71H202.32Z"/><path class="cls-1" d="M265.84,0h28a80.15,80.15,0,0,1,19.32,2.27,44.29,44.29,0,0,1,16,7.36A36.1,36.1,0,0,1,340,22.85q4,8.15,4,19.74a40.31,40.31,0,0,1-3.89,18.13,39.05,39.05,0,0,1-10.46,13.16A46.47,46.47,0,0,1,314.42,82a59.16,59.16,0,0,1-18.07,2.75H265.84Zm18.67,67.48h9.69a51.9,51.9,0,0,0,12-1.32,25.72,25.72,0,0,0,9.64-4.36,21.06,21.06,0,0,0,6.4-8,28.51,28.51,0,0,0,2.33-12.14,23.75,23.75,0,0,0-2.33-10.83,21.79,21.79,0,0,0-6.28-7.6,27.74,27.74,0,0,0-9.28-4.49,41.45,41.45,0,0,0-11.18-1.49h-11Z"/><path class="cls-1" d="M357.37,0h57.55V17.23H376V33h36.73V50.25H376V67.48h41V84.71h-59.7Z"/><path class="cls-1" d="M432.75,0h18.66V35.18L484.31,0h24.41L471,39.36,512,84.71H485.87l-34.46-40.2v40.2H432.75Z"/><path class="cls-1" d="M117.67,117.35a6.25,6.25,0,0,0-5.53-2.79,7.87,7.87,0,0,0-2.21.31,6.2,6.2,0,0,0-2,.92,4.65,4.65,0,0,0-1.39,1.62,4.87,4.87,0,0,0-.53,2.32,4,4,0,0,0,1.09,3,8.65,8.65,0,0,0,2.7,1.76,29.24,29.24,0,0,0,3.54,1.23,16.55,16.55,0,0,1,3.53,1.45,8.63,8.63,0,0,1,2.7,2.4,6.86,6.86,0,0,1,1.09,4.08,7.34,7.34,0,0,1-.83,3.49,8.08,8.08,0,0,1-2.18,2.6,10.08,10.08,0,0,1-3,1.61,10.42,10.42,0,0,1-3.37.57,12.8,12.8,0,0,1-5-1,9.46,9.46,0,0,1-4-3.25l2.66-1.89a7.09,7.09,0,0,0,2.58,2.52,7.71,7.71,0,0,0,3.9.94,7.12,7.12,0,0,0,2.17-.34,6.24,6.24,0,0,0,2-1,5.48,5.48,0,0,0,1.43-1.63,4.41,4.41,0,0,0,.56-2.22,4.63,4.63,0,0,0-.62-2.48,5.34,5.34,0,0,0-1.66-1.65,9.74,9.74,0,0,0-2.34-1.11c-.87-.3-1.77-.6-2.7-.89s-1.83-.63-2.7-1a9.17,9.17,0,0,1-2.34-1.43,6.48,6.48,0,0,1-1.66-2.18,7.61,7.61,0,0,1-.62-3.29,7.82,7.82,0,0,1,.78-3.59,7.55,7.55,0,0,1,2.1-2.54,9,9,0,0,1,3-1.5,12.59,12.59,0,0,1,7.78.29,9.46,9.46,0,0,1,3.67,2.7Z"/><path class="cls-1" d="M157.53,141.19h-2.9v-25.9h-9.56v-2.66h22v2.66h-9.56Z"/><path class="cls-1" d="M213.73,130.54a18.36,18.36,0,0,1-.42,3.77,10.1,10.1,0,0,1-1.59,3.69,9.1,9.1,0,0,1-3.21,2.81,12.9,12.9,0,0,1-10.47,0,9.12,9.12,0,0,1-3.19-2.81,10.1,10.1,0,0,1-1.59-3.69,18.4,18.4,0,0,1-.43-3.77V112.63h2.91v17.59a13.46,13.46,0,0,0,.4,3.53,8.74,8.74,0,0,0,1.07,2.48,5.89,5.89,0,0,0,1.5,1.59,7.53,7.53,0,0,0,1.65.91,6.26,6.26,0,0,0,1.59.42,10,10,0,0,0,1.34.1,10.28,10.28,0,0,0,1.31-.1,6.29,6.29,0,0,0,1.61-.42,7.53,7.53,0,0,0,1.65-.91,5.89,5.89,0,0,0,1.5-1.59,8.74,8.74,0,0,0,1.07-2.48,13.9,13.9,0,0,0,.4-3.53V112.63h2.9Z"/><path class="cls-1" d="M242.38,112.63h9.48a17,17,0,0,1,5.35.88,15,15,0,0,1,4.84,2.69,13.54,13.54,0,0,1,3.49,4.48,15.3,15.3,0,0,1,0,12.48,13.67,13.67,0,0,1-3.49,4.46,14.74,14.74,0,0,1-4.84,2.68,16.72,16.72,0,0,1-5.35.89h-9.48Zm2.9,25.9h5.65a14.81,14.81,0,0,0,5.67-1,11.69,11.69,0,0,0,4-2.62,10.54,10.54,0,0,0,2.37-3.71,12.54,12.54,0,0,0,0-8.6,10.54,10.54,0,0,0-2.37-3.71,11.69,11.69,0,0,0-4-2.62,14.81,14.81,0,0,0-5.67-1h-5.65Z"/><path class="cls-1" d="M297.37,141.19h-2.91V112.63h2.91Z"/><path class="cls-1" d="M354.74,126.91a15.69,15.69,0,0,1-1.13,6,14.15,14.15,0,0,1-3.13,4.74,14.32,14.32,0,0,1-4.72,3.13,16,16,0,0,1-11.82,0,14.42,14.42,0,0,1-4.72-3.13,14.28,14.28,0,0,1-3.12-4.74,16.55,16.55,0,0,1,0-12,14.28,14.28,0,0,1,3.12-4.74,14.42,14.42,0,0,1,4.72-3.13,16,16,0,0,1,11.82,0,14.32,14.32,0,0,1,4.72,3.13,14.15,14.15,0,0,1,3.13,4.74A15.69,15.69,0,0,1,354.74,126.91Zm-3.15,0a13.69,13.69,0,0,0-.8-4.7,11.92,11.92,0,0,0-2.32-3.93,11.33,11.33,0,0,0-3.69-2.71,12.51,12.51,0,0,0-9.85,0,11.33,11.33,0,0,0-3.69,2.71,11.92,11.92,0,0,0-2.32,3.93,14,14,0,0,0,0,9.4,11.92,11.92,0,0,0,2.32,3.93,11.33,11.33,0,0,0,3.69,2.71,12.63,12.63,0,0,0,9.85,0,11.33,11.33,0,0,0,3.69-2.71,11.92,11.92,0,0,0,2.32-3.93A13.69,13.69,0,0,0,351.59,126.91Z"/><path class="cls-1" d="M395.85,117.35a6.25,6.25,0,0,0-5.52-2.79,7.88,7.88,0,0,0-2.22.31,6.2,6.2,0,0,0-2,.92,4.65,4.65,0,0,0-1.39,1.62,4.87,4.87,0,0,0-.53,2.32,4,4,0,0,0,1.09,3,8.58,8.58,0,0,0,2.71,1.76,28.48,28.48,0,0,0,3.53,1.23,16.55,16.55,0,0,1,3.53,1.45,8.63,8.63,0,0,1,2.7,2.4,6.79,6.79,0,0,1,1.09,4.08,7.34,7.34,0,0,1-.83,3.49,8.08,8.08,0,0,1-2.18,2.6,10.08,10.08,0,0,1-3,1.61,10.42,10.42,0,0,1-3.37.57,12.72,12.72,0,0,1-5-1,9.43,9.43,0,0,1-4-3.25l2.66-1.89a7.09,7.09,0,0,0,2.58,2.52,7.71,7.71,0,0,0,3.9.94,7.12,7.12,0,0,0,2.17-.34,6,6,0,0,0,1.95-1,5.48,5.48,0,0,0,1.43-1.63,4.41,4.41,0,0,0,.56-2.22,4.63,4.63,0,0,0-.62-2.48,5.34,5.34,0,0,0-1.66-1.65,9.74,9.74,0,0,0-2.34-1.11c-.87-.3-1.77-.6-2.7-.89s-1.83-.63-2.7-1a9.17,9.17,0,0,1-2.34-1.43,6.48,6.48,0,0,1-1.66-2.18,7.61,7.61,0,0,1-.62-3.29,7.82,7.82,0,0,1,.78-3.59,7.55,7.55,0,0,1,2.1-2.54,9.14,9.14,0,0,1,3-1.5,12.59,12.59,0,0,1,7.78.29,9.48,9.48,0,0,1,3.68,2.7Z"/></g></g></svg>