<svg xmlns="http://www.w3.org/2000/svg" viewBox="0 0 532.48 407.05"><defs><style>.cls-1{fill:#fff;}</style></defs><title>maldek-logo-full_1</title><g id="Layer_2" data-name="Layer 2"><g id="Layer_1-2" data-name="Layer 1"><polygon class="cls-1" points="62.77 320.41 62.54 320.41 43.03 265.13 14.8 265.13 14.8 349.84 33.46 349.84 33.46 284.88 33.7 284.88 55.12 349.84 69.36 349.84 91.61 284.88 91.85 284.88 91.85 349.84 110.51 349.84 110.51 265.13 82.4 265.13 62.77 320.41"/><path class="cls-1" d="M171.05,265.13H155.62L119,349.84h20.57l7.06-17.94h32.91l7.29,17.94H207.9Zm-18.54,51,10.29-26.32,10.41,26.32Z"/><polygon class="cls-1" points="270.35 332.61 235.78 332.61 235.78 265.13 217.11 265.13 217.11 349.84 270.35 349.84 270.35 332.61"/><path class="cls-1" d="M354.88,325.85a40.27,40.27,0,0,0,3.89-18.12q0-11.61-4-19.74a35.94,35.94,0,0,0-10.83-13.22,44.08,44.08,0,0,0-16-7.36,79.65,79.65,0,0,0-19.32-2.28h-28v84.71h30.51a58.86,58.86,0,0,0,18.07-2.75A46,46,0,0,0,344.41,339,38.77,38.77,0,0,0,354.88,325.85Zm-17.83-6.93a20.86,20.86,0,0,1-6.4,8A25.77,25.77,0,0,1,321,331.3a52,52,0,0,1-12,1.31h-9.69V282.36h11a41.08,41.08,0,0,1,11.19,1.5,27.4,27.4,0,0,1,9.27,4.49,21.45,21.45,0,0,1,6.28,7.59,23.62,23.62,0,0,1,2.34,10.83A28.37,28.37,0,0,1,337.05,318.92Z"/><polygon class="cls-1" points="390.83 315.39 427.56 315.39 427.56 298.16 390.83 298.16 390.83 282.36 429.72 282.36 429.72 265.13 372.17 265.13 372.17 349.84 431.87 349.84 431.87 332.61 390.83 332.61 390.83 315.39"/><polygon class="cls-1" points="485.83 304.5 523.52 265.13 499.11 265.13 466.21 300.31 466.21 265.13 447.54 265.13 447.54 349.84 466.21 349.84 466.21 309.64 500.67 349.84 526.75 349.84 485.83 304.5"/><path class="cls-1" d="M131.7,392.31a16.15,16.15,0,0,0-3.53-1.46,29.68,29.68,0,0,1-3.53-1.23,8.63,8.63,0,0,1-2.7-1.75,4,4,0,0,1-1.09-3,4.87,4.87,0,0,1,.53-2.32,4.52,4.52,0,0,1,1.39-1.61,6,6,0,0,1,2-.93,8.37,8.37,0,0,1,2.22-.3,6.28,6.28,0,0,1,5.53,2.78l2.54-2a9.46,9.46,0,0,0-3.67-2.7,12.71,12.71,0,0,0-7.79-.28,8.88,8.88,0,0,0-3,1.49,7.33,7.33,0,0,0-2.1,2.54,7.85,7.85,0,0,0-.79,3.59,7.57,7.57,0,0,0,.63,3.29,6.49,6.49,0,0,0,1.65,2.18,9.23,9.23,0,0,0,2.34,1.43,27.41,27.41,0,0,0,2.71,1c.92.3,1.83.59,2.7.89a11,11,0,0,1,2.34,1.11,5.3,5.3,0,0,1,1.65,1.65,4.54,4.54,0,0,1,.63,2.48,4.36,4.36,0,0,1-.56,2.22,5.8,5.8,0,0,1-1.43,1.64,6.45,6.45,0,0,1-2,1,7.17,7.17,0,0,1-2.17.34,7.73,7.73,0,0,1-3.91-.95,7,7,0,0,1-2.57-2.52l-2.66,1.9a9.44,9.44,0,0,0,4,3.24,12.8,12.8,0,0,0,5,1,10.62,10.62,0,0,0,3.36-.56,10.27,10.27,0,0,0,3-1.62,8,8,0,0,0,2.18-2.6,7.31,7.31,0,0,0,.83-3.49,6.8,6.8,0,0,0-1.09-4.07A8.32,8.32,0,0,0,131.7,392.31Z"/><polygon class="cls-1" points="159.86 380.43 169.43 380.43 169.43 406.33 172.33 406.33 172.33 380.43 181.89 380.43 181.89 377.76 159.86 377.76 159.86 380.43"/><path class="cls-1" d="M225.63,395.35a13.42,13.42,0,0,1-.41,3.53,8.21,8.21,0,0,1-1.07,2.48,5.77,5.77,0,0,1-1.49,1.6,8,8,0,0,1-1.65.91,7.17,7.17,0,0,1-1.62.42,8.76,8.76,0,0,1-2.64,0,7.22,7.22,0,0,1-1.59-.42,8,8,0,0,1-1.66-.91,5.77,5.77,0,0,1-1.49-1.6,8.74,8.74,0,0,1-1.07-2.48,13.46,13.46,0,0,1-.4-3.53V377.76h-2.91v17.91a17.75,17.75,0,0,0,.43,3.78,10.1,10.1,0,0,0,1.59,3.69,9.09,9.09,0,0,0,3.19,2.8,12.9,12.9,0,0,0,10.47,0,9,9,0,0,0,3.2-2.8,10.12,10.12,0,0,0,1.6-3.69,18.37,18.37,0,0,0,.42-3.78V377.76h-2.9Z"/><path class="cls-1" d="M276.84,381.33a14.72,14.72,0,0,0-4.84-2.68,17,17,0,0,0-5.34-.89h-9.48v28.57h9.48a17,17,0,0,0,5.34-.89,14.72,14.72,0,0,0,4.84-2.68,13.64,13.64,0,0,0,3.49-4.46,15.22,15.22,0,0,0,0-12.49A13.51,13.51,0,0,0,276.84,381.33Zm.91,15a10.29,10.29,0,0,1-2.36,3.71,11.55,11.55,0,0,1-4,2.62,14.81,14.81,0,0,1-5.67,1h-5.65V380.42h5.65a14.81,14.81,0,0,1,5.67,1,11.71,11.71,0,0,1,4,2.63,10.21,10.21,0,0,1,2.36,3.71,12.36,12.36,0,0,1,0,8.59Z"/><rect class="cls-1" x="309.26" y="377.76" width="2.91" height="28.56"/><path class="cls-1" d="M365.28,381.29a14.29,14.29,0,0,0-4.72-3.12,16,16,0,0,0-11.82,0,14.29,14.29,0,0,0-4.72,3.12,14.46,14.46,0,0,0-3.13,4.74,16.57,16.57,0,0,0,0,12A14.67,14.67,0,0,0,344,402.8a14.29,14.29,0,0,0,4.72,3.12,16,16,0,0,0,11.82,0,14.29,14.29,0,0,0,4.72-3.12,14.51,14.51,0,0,0,3.13-4.74,16.57,16.57,0,0,0,0-12A14.3,14.3,0,0,0,365.28,381.29Zm.3,15.45a11.7,11.7,0,0,1-2.32,3.94,11,11,0,0,1-3.69,2.7,12.49,12.49,0,0,1-9.84,0,11.16,11.16,0,0,1-3.69-2.7,11.7,11.7,0,0,1-2.32-3.94,14,14,0,0,1,0-9.4,11.75,11.75,0,0,1,2.32-3.93,11.16,11.16,0,0,1,3.69-2.7,12.49,12.49,0,0,1,9.84,0,11,11,0,0,1,3.69,2.7,11.75,11.75,0,0,1,2.32,3.93,14,14,0,0,1,0,9.4Z"/><path class="cls-1" d="M409.88,392.31a16.15,16.15,0,0,0-3.53-1.46,29.68,29.68,0,0,1-3.53-1.23,8.63,8.63,0,0,1-2.7-1.75,4,4,0,0,1-1.09-3,4.87,4.87,0,0,1,.53-2.32,4.62,4.62,0,0,1,1.39-1.61,6.06,6.06,0,0,1,1.95-.93,8.37,8.37,0,0,1,2.22-.3,6.28,6.28,0,0,1,5.53,2.78l2.54-2a9.46,9.46,0,0,0-3.67-2.7,12.71,12.71,0,0,0-7.79-.28,8.88,8.88,0,0,0-3,1.49,7.44,7.44,0,0,0-2.1,2.54,7.85,7.85,0,0,0-.79,3.59,7.57,7.57,0,0,0,.63,3.29,6.49,6.49,0,0,0,1.65,2.18A9.23,9.23,0,0,0,400.5,392a27.41,27.41,0,0,0,2.71,1c.92.3,1.83.59,2.7.89a11,11,0,0,1,2.34,1.11,5.2,5.2,0,0,1,1.65,1.65,4.54,4.54,0,0,1,.63,2.48,4.36,4.36,0,0,1-.56,2.22,5.65,5.65,0,0,1-1.43,1.64,6.45,6.45,0,0,1-2,1,7.17,7.17,0,0,1-2.17.34,7.72,7.72,0,0,1-3.9-.95,6.94,6.94,0,0,1-2.58-2.52l-2.66,1.9a9.44,9.44,0,0,0,4,3.24,12.8,12.8,0,0,0,5,1,10.57,10.57,0,0,0,3.36-.56,10.27,10.27,0,0,0,3-1.62,8,8,0,0,0,2.18-2.6,7.31,7.31,0,0,0,.83-3.49,6.8,6.8,0,0,0-1.09-4.07A8.32,8.32,0,0,0,409.88,392.31Z"/><path class="cls-1" d="M0,0V217.2H532.48V0ZM525.76,210.47H6.72V164.28H170.53a14,14,0,0,0,26.87,0H325.53a16.12,16.12,0,0,0,31.32,0h113.5a19,19,0,0,0,37.27,0h18.14Zm0-52.91h-18a19,19,0,0,0-37.52,0H357.05a16.12,16.12,0,0,0-31.73,0H197.68a14,14,0,0,0-27.43,0H6.72V112.2H67.38a16.11,16.11,0,0,0,31.17,0H233.29a25.78,25.78,0,0,0,50.66,0H395.62a17.45,17.45,0,0,0,34.46,0h95.68Zm0-102.94-160.1.09c-4.4,2.82-9.3,5.66-14.47,8.35s-10.57,5.23-15.51,7.27a18.94,18.94,0,0,0,28.86-9H525.76v44.13H429.85a17.45,17.45,0,0,0-34,0H284.32a25.77,25.77,0,0,0-51.4,0h-134a16.12,16.12,0,0,0-31.81,0H6.72V61.34H30.45a10.4,10.4,0,0,0,19.69,0h79.33a16.11,16.11,0,0,0,30.15,0H321.71c-.6.44-1.17.88-1.73,1.32-6.32,5-8.14,7.83-8.42,8.82,1,.35,4.37.5,12.05-1.86,2.57-.79,5.34-1.77,8.26-2.92h0l1-.39.09,0c1-.4,2-.81,3-1.25l.12,0,.92-.4.1,0,2-.91.17-.07.85-.39.2-.09,1-.45,0,0,1-.48.18-.09.82-.39.27-.13.8-.39.22-.11,1-.5.17-.08.83-.42.31-.16.72-.36.3-.16,1-.52,1-.51.3-.16.68-.36.33-.18.71-.39.25-.13,1-.53.1-.06.86-.48.25-.14.73-.41.24-.14.85-.48.08-.05,1-.57.05,0,.88-.52.17-.1.81-.48.12-.08c.64-.38,1.26-.76,1.88-1.15h0l.89-.56.09-.06.87-.55h0l1.8-1.17h0c2.74-1.81,5.25-3.6,7.46-5.33,6.32-5,8.14-7.83,8.42-8.83-1-.34-4.38-.49-12.06,1.87-2.94.9-6.15,2.06-9.53,3.43h0a19.1,19.1,0,0,0-4.95-3.13h0A17.73,17.73,0,0,0,351,36.48l-.07,0-.42-.09-.12,0-.4-.07h-.08l-.7-.11-.26,0-.28,0-.3,0-.26,0-.34,0-.23,0h-1.75l-.21,0-.42,0H345l-.59.06-.69.1-.15,0-.66.12-.11,0-.6.13-.1,0-.64.17-.14,0-.64.2,0,0-.6.21-.13,0-.6.24-.11,0-.55.25-.08,0-.57.29-.13.07-.57.31-.06,0-.51.3-.12.07-.52.35-.12.08-.48.35-.06,0-.5.38-.12.1-.48.4a.27.27,0,0,1-.08.07l-.41.38-.1.09-.44.43-.11.12-.41.42,0,0-.41.46a1.47,1.47,0,0,1-.1.13l-.39.47-.08.12a4.63,4.63,0,0,0-.32.42l-.09.11-.34.5a1.3,1.3,0,0,1-.1.15c-.1.16-.21.32-.31.49l-.06.11c-.1.15-.19.3-.28.46l-.09.16c-.09.17-.19.35-.27.52l-.09.16-.21.44-.07.15-.24.54a1.54,1.54,0,0,1-.08.19l-.21.54-.06.16-.15.45a1.59,1.59,0,0,0-.07.2c-.06.18-.12.37-.17.55l-.06.21-.12.44a1.6,1.6,0,0,1,0,.21l-.12.53a.5.5,0,0,0,0,.12h0a18.78,18.78,0,0,0-.36,3.45H160.63a16.12,16.12,0,0,0-32.17,0H50.14a10.39,10.39,0,0,0-19.69,0H6.72V6.72h519ZM365.14,59.27c0,.18-.07.35-.11.53C365.07,59.62,365.1,59.45,365.14,59.27Z"/></g></g></svg>