<svg id="Layer_1" data-name="Layer 1" xmlns="http://www.w3.org/2000/svg" viewBox="0 0 532.48 141.92"><defs><style>.cls-1{fill:#fff;}</style></defs><title>logo_slice_svg</title><g id="Layer_1-2" data-name="Layer 1-2"><polygon class="cls-1" points="62.77 55.28 62.54 55.28 43.03 0 14.8 0 14.8 84.71 33.46 84.71 33.46 19.75 33.7 19.75 55.12 84.71 69.36 84.71 91.61 19.75 91.85 19.75 91.85 84.71 110.51 84.71 110.51 0 82.4 0 62.77 55.28"/><path class="cls-1" d="M171.05,0H155.62L119,84.71h20.57l7.06-17.94h32.91l7.29,17.94H207.9ZM152.51,51,162.8,24.68,173.21,51Z"/><polygon class="cls-1" points="270.35 67.48 235.78 67.48 235.78 0 217.11 0 217.11 84.71 270.35 84.71 270.35 67.48"/><path class="cls-1" d="M354.88,60.72a40.22,40.22,0,0,0,3.89-18.12q0-11.61-4-19.74A35.91,35.91,0,0,0,343.94,9.64a44.12,44.12,0,0,0-16-7.36A79.57,79.57,0,0,0,308.62,0h-28V84.71h30.51A58.9,58.9,0,0,0,329.2,82a46,46,0,0,0,15.21-8.09A38.73,38.73,0,0,0,354.88,60.72Zm-17.83-6.93a20.82,20.82,0,0,1-6.4,8A25.7,25.7,0,0,1,321,66.17a52.1,52.1,0,0,1-12,1.31h-9.69V17.23h11a41.07,41.07,0,0,1,11.19,1.5,27.42,27.42,0,0,1,9.27,4.49,21.57,21.57,0,0,1,6.28,7.59,23.59,23.59,0,0,1,2.34,10.83,28.5,28.5,0,0,1-2.34,12.15Z"/><polygon class="cls-1" points="390.83 50.26 427.56 50.26 427.56 33.03 390.83 33.03 390.83 17.23 429.72 17.23 429.72 0 372.17 0 372.17 84.71 431.87 84.71 431.87 67.48 390.83 67.48 390.83 50.26"/><polygon class="cls-1" points="485.83 39.37 523.52 0 499.11 0 466.21 35.18 466.21 0 447.54 0 447.54 84.71 466.21 84.71 466.21 44.51 500.67 84.71 526.75 84.71 485.83 39.37"/><path class="cls-1" d="M131.7,127.18a16.52,16.52,0,0,0-3.53-1.46,29.49,29.49,0,0,1-3.53-1.23,8.6,8.6,0,0,1-2.7-1.75,4,4,0,0,1-1.09-3,4.82,4.82,0,0,1,.53-2.32,4.59,4.59,0,0,1,1.39-1.61,5.9,5.9,0,0,1,2-.93,8.31,8.31,0,0,1,2.22-.3,6.29,6.29,0,0,1,5.53,2.78l2.54-2a9.54,9.54,0,0,0-3.67-2.7,12.72,12.72,0,0,0-7.79-.28,8.88,8.88,0,0,0-3,1.49,7.47,7.47,0,0,0-2.1,2.54,8,8,0,0,0-.79,3.59,7.57,7.57,0,0,0,.63,3.29,6.43,6.43,0,0,0,1.65,2.18,9.18,9.18,0,0,0,2.34,1.43,26.71,26.71,0,0,0,2.71,1c.92.3,1.83.59,2.7.89a11.15,11.15,0,0,1,2.34,1.11,5.3,5.3,0,0,1,1.65,1.65,4.59,4.59,0,0,1,.63,2.48,4.42,4.42,0,0,1-.56,2.22,5.76,5.76,0,0,1-1.43,1.64,6.26,6.26,0,0,1-2,1,6.93,6.93,0,0,1-2.17.34,7.65,7.65,0,0,1-3.91-.95,7,7,0,0,1-2.57-2.52l-2.66,1.9a9.45,9.45,0,0,0,4,3.24,12.61,12.61,0,0,0,5,1,10.37,10.37,0,0,0,6.36-2.18,8,8,0,0,0,2.18-2.6,7.3,7.3,0,0,0,.83-3.49,6.74,6.74,0,0,0-1.09-4.07A8.35,8.35,0,0,0,131.7,127.18Z"/><polygon class="cls-1" points="159.86 115.3 169.43 115.3 169.43 141.2 172.33 141.2 172.33 115.3 181.89 115.3 181.89 112.63 159.86 112.63 159.86 115.3"/><path class="cls-1" d="M225.63,130.22a13.53,13.53,0,0,1-.41,3.53,8.29,8.29,0,0,1-1.07,2.48,5.83,5.83,0,0,1-1.49,1.6,8,8,0,0,1-1.65.91,7.57,7.57,0,0,1-1.62.42,9,9,0,0,1-2.64,0,7.31,7.31,0,0,1-1.59-.42,8.12,8.12,0,0,1-1.66-.91,5.83,5.83,0,0,1-1.49-1.6,9,9,0,0,1-1.07-2.48,13.52,13.52,0,0,1-.4-3.53V112.63h-2.91v17.91a17.81,17.81,0,0,0,.43,3.78,10.12,10.12,0,0,0,1.59,3.69,9.14,9.14,0,0,0,3.19,2.8,12.9,12.9,0,0,0,10.47,0,9,9,0,0,0,3.2-2.8,10.14,10.14,0,0,0,1.6-3.69,18.47,18.47,0,0,0,.42-3.78V112.63h-2.9Z"/><path class="cls-1" d="M276.84,116.2a14.74,14.74,0,0,0-4.84-2.68,17,17,0,0,0-5.34-.89h-9.48V141.2h9.48a17,17,0,0,0,5.34-.89,14.74,14.74,0,0,0,4.84-2.68,13.68,13.68,0,0,0,3.49-4.46,15.2,15.2,0,0,0,0-12.49A13.49,13.49,0,0,0,276.84,116.2Zm.91,15a10.35,10.35,0,0,1-2.36,3.71,11.57,11.57,0,0,1-4,2.62,14.85,14.85,0,0,1-5.67,1h-5.65V115.29h5.65a14.85,14.85,0,0,1,5.67,1,11.74,11.74,0,0,1,4,2.63,10.22,10.22,0,0,1,2.36,3.71,12.33,12.33,0,0,1,0,8.59Z"/><rect class="cls-1" x="309.26" y="112.63" width="2.91" height="28.56"/><path class="cls-1" d="M365.28,116.16a14.39,14.39,0,0,0-4.72-3.12,16,16,0,0,0-11.82,0,14.16,14.16,0,0,0-7.85,7.86,16.56,16.56,0,0,0,0,12,14.68,14.68,0,0,0,3.11,4.77,14.08,14.08,0,0,0,4.72,3.12,16,16,0,0,0,11.82,0,14.08,14.08,0,0,0,4.72-3.12,14.45,14.45,0,0,0,3.13-4.74,16.56,16.56,0,0,0,0-12A14.36,14.36,0,0,0,365.28,116.16Zm.3,15.45a11.89,11.89,0,0,1-2.32,3.94,10.94,10.94,0,0,1-3.69,2.7,12.46,12.46,0,0,1-9.84,0,11,11,0,0,1-3.69-2.7,11.89,11.89,0,0,1-2.32-3.94,14,14,0,0,1,0-9.4,11.84,11.84,0,0,1,2.32-3.93,11.32,11.32,0,0,1,3.69-2.7,12.46,12.46,0,0,1,9.84,0,10.94,10.94,0,0,1,3.69,2.7,11.84,11.84,0,0,1,2.32,3.93A14,14,0,0,1,365.58,131.61Z"/><path class="cls-1" d="M409.88,127.18a16.52,16.52,0,0,0-3.53-1.46,29.49,29.49,0,0,1-3.53-1.23,8.6,8.6,0,0,1-2.7-1.75,4,4,0,0,1-1.09-3,4.82,4.82,0,0,1,.53-2.32,4.59,4.59,0,0,1,1.39-1.61,6.15,6.15,0,0,1,1.95-.93,8.31,8.31,0,0,1,2.22-.3,6.29,6.29,0,0,1,5.53,2.78l2.54-2a9.54,9.54,0,0,0-3.67-2.7,12.72,12.72,0,0,0-7.79-.28,8.88,8.88,0,0,0-3,1.49,7.47,7.47,0,0,0-2.1,2.54,8,8,0,0,0-.79,3.59,7.57,7.57,0,0,0,.63,3.29,6.43,6.43,0,0,0,1.65,2.18,9.2,9.2,0,0,0,2.38,1.4,26.71,26.71,0,0,0,2.71,1c.92.3,1.83.59,2.7.89a11.15,11.15,0,0,1,2.34,1.11,5.2,5.2,0,0,1,1.65,1.65,4.59,4.59,0,0,1,.63,2.48,4.42,4.42,0,0,1-.56,2.22,5.63,5.63,0,0,1-1.43,1.64,6.26,6.26,0,0,1-2,1,6.93,6.93,0,0,1-2.17.34,7.69,7.69,0,0,1-3.9-.95,6.93,6.93,0,0,1-2.58-2.52l-2.66,1.9a9.45,9.45,0,0,0,4,3.24,12.61,12.61,0,0,0,5,1,10.37,10.37,0,0,0,6.36-2.18,8,8,0,0,0,2.18-2.6,7.3,7.3,0,0,0,.83-3.49,6.74,6.74,0,0,0-1.09-4.07A8.46,8.46,0,0,0,409.88,127.18Z"/></g></svg>