<svg id="Layer_1" data-name="Layer 1" xmlns="http://www.w3.org/2000/svg" viewBox="0 0 532.48 265.13"><defs><style>.cls-1{fill:#fff;}</style></defs><title>logo_slice_svg-01</title><g id="Layer_1-2" data-name="Layer 1-2"><path class="cls-1" d="M0,0V217.2H532.48V0ZM525.76,210.47H6.72V164.28H170.53a14,14,0,0,0,26.87,0H325.53a16.12,16.12,0,0,0,31.32,0h113.5a19,19,0,0,0,37.27,0h18.14Zm0-52.91h-18a19,19,0,0,0-37.52,0H357.05a16.12,16.12,0,0,0-31.73,0H197.68a14,14,0,0,0-27.43,0H6.72V112.2H67.38a16.11,16.11,0,0,0,31.17,0H233.29a25.78,25.78,0,0,0,50.66,0H395.62a17.45,17.45,0,0,0,34.46,0h95.68Zm0-102.94-160.1.09c-4.4,2.82-9.3,5.66-14.47,8.35s-10.57,5.23-15.51,7.27a18.93,18.93,0,0,0,28.86-9H525.76v44.13H429.85a17.45,17.45,0,0,0-34,0H284.32a25.77,25.77,0,0,0-51.4,0h-134a16.12,16.12,0,0,0-31.81,0H6.72V61.34H30.45a10.4,10.4,0,0,0,19.69,0h79.33a16.11,16.11,0,0,0,30.15,0H321.71c-.6.44-1.17.88-1.73,1.32-6.32,5-8.14,7.83-8.42,8.82,1,.35,4.37.5,12.05-1.86,2.57-.79,5.34-1.77,8.26-2.92h0l1-.39H333c1-.4,2-.81,3-1.25h.12l.92-.4h.1l2-.91.17-.07.85-.39.2-.09,1-.45h0l1-.48.18-.09.82-.39.27-.13.8-.39.22-.11,1-.5.17-.08.83-.42.31-.16.72-.36.3-.16,1-.52,1-.51.3-.16.68-.36.33-.18.71-.39.25-.13,1-.53.1-.06.86-.48.25-.14.73-.41.24-.14.85-.48.08-.05,1-.57h.05l.88-.52.17-.1.81-.48.12-.08c.64-.38,1.26-.76,1.88-1.15h0l.89-.56.09-.06.87-.55h0l1.8-1.17h0c2.74-1.81,5.25-3.6,7.46-5.33,6.32-5,8.14-7.83,8.42-8.83-1-.34-4.38-.49-12.06,1.87-2.94.9-6.15,2.06-9.53,3.43h0a19.1,19.1,0,0,0-4.95-3.13h0A17.67,17.67,0,0,0,351,36.48h-.07l-.42-.09h-.12l-.4-.07h-.08l-.7-.11H345l-.59.06-.69.1h-.15l-.66.12h-.11l-.6.13h-.1l-.64.17h-.14l-.64.2h0l-.6.21H340l-.6.24h-.11l-.55.25h-.08L338,38l-.13.07-.57.31h-.06l-.51.3-.12.07-.52.35-.12.08-.48.35h-.06l-.5.38-.12.1-.48.4a.27.27,0,0,1-.08.07l-.41.38-.1.09-.44.43-.11.12-.41.42h0l-.41.46a.64.64,0,0,1-.1.13l-.39.47-.08.12a4.63,4.63,0,0,0-.32.42l-.09.11-.34.5-.1.15c-.1.16-.21.32-.31.49l-.06.11c-.1.15-.19.3-.28.46l-.09.16c-.09.17-.19.35-.27.52l-.09.16-.21.44-.07.15-.24.54a1.08,1.08,0,0,1-.08.19l-.21.54-.06.16-.15.45a1.59,1.59,0,0,0-.07.2c-.06.18-.12.37-.17.55l-.06.21-.12.44v.21l-.12.53v.12h0a18.2,18.2,0,0,0-.36,3.45H160.63a16.12,16.12,0,0,0-32.17,0H50.14a10.39,10.39,0,0,0-19.69,0H6.72V6.72h519ZM365.14,59.27a2.5,2.5,0,0,1-.11.53C365.07,59.62,365.1,59.45,365.14,59.27Z"/></g></svg>